<?xml version="1.0" standalone="no"?>
<!DOCTYPE svg PUBLIC "-//W3C//DTD SVG 20010904//EN"
 "http://www.w3.org/TR/2001/REC-SVG-20010904/DTD/svg10.dtd">
<svg version="1.0" xmlns="http://www.w3.org/2000/svg"
 width="260.000000pt" height="260.000000pt" viewBox="0 0 260.000000 260.000000"
 preserveAspectRatio="xMidYMid meet">
<metadata>
Created by potrace 1.14, written by Peter Selinger 2001-2017
</metadata>
<g transform="translate(0.000000,260.000000) scale(0.100000,-0.100000)"
fill="#000000" stroke="none">
<path d="M452 2580 c-109 -29 -187 -74 -272 -160 -87 -86 -131 -163 -160 -276
-19 -74 -20 -113 -20 -844 0 -731 1 -770 20 -844 29 -113 73 -190 160 -276 86
-87 163 -131 276 -160 74 -19 113 -20 838 -20 846 0 840 0 976 66 55 27 95 57
150 113 87 87 131 164 160 277 19 74 20 113 20 844 0 731 -1 770 -20 844 -29
113 -73 190 -160 276 -86 87 -163 131 -276 160 -74 19 -112 20 -848 19 -726 0
-775 -1 -844 -19z m1562 -585 c174 -63 206 -288 66 -465 -29 -36 -31 -44 -20
-63 6 -12 30 -35 53 -52 61 -45 87 -102 87 -191 0 -213 -162 -364 -440 -409
-170 -28 -302 -11 -392 52 -43 30 -26 37 -173 -77 -174 -136 -325 -190 -530
-192 -101 -1 -129 3 -177 21 -162 62 -208 237 -113 433 53 112 193 236 323
287 65 26 232 61 289 61 51 0 163 -25 203 -45 14 -7 42 -29 64 -50 l39 -36 29
27 c32 31 67 90 142 239 85 168 137 285 131 295 -17 28 -168 -11 -315 -82 -90
-44 -115 -61 -181 -130 -79 -82 -121 -104 -163 -88 -13 4 -28 22 -35 38 -39
93 47 212 214 297 143 73 284 113 460 130 83 9 157 17 165 19 45 10 229 -3
274 -19z"/>
<path d="M1805 1783 c-3 -21 -20 -79 -37 -129 -34 -99 -33 -130 4 -119 67 20
145 139 134 204 -6 41 -42 81 -72 81 -17 0 -23 -7 -29 -37z"/>
<path d="M1681 1320 c-48 -12 -81 -39 -123 -101 -31 -46 -128 -221 -128 -231
0 -2 21 -2 46 0 26 3 64 -3 87 -11 65 -24 110 -30 153 -18 101 27 212 141 222
227 6 59 -10 88 -63 113 -49 23 -145 34 -194 21z"/>
<path d="M805 1224 c-138 -57 -264 -230 -252 -343 10 -86 70 -131 177 -131 51
0 78 6 127 29 34 16 70 38 80 48 10 10 45 39 77 65 68 56 166 172 183 218 12
31 11 31 -31 50 -24 10 -69 30 -101 45 -74 35 -199 44 -260 19z"/>
</g>
</svg>
